<svg xmlns="http://www.w3.org/2000/svg" viewBox="0 0 240 240" fill="currentColor" aria-hidden="true">
  <path d="M118 22c-6 3-8 12-3 18 2 3 7 4 11 3 9-2 14-13 9-20-4-5-11-4-17-1z"/>
  <circle cx="70" cy="58" r="9"/>
  <circle cx="175" cy="50" r="6"/>
  <path d="M48 104c-8 1-18 7-18 18 0 13 14 20 26 15 9-4 13-14 10-22-3-9-10-12-18-11z"/>
  <circle cx="205" cy="110" r="11"/>
  <circle cx="138" cy="132" r="5"/>
  <circle cx="85" cy="156" r="7"/>
  <path d="M170 170c-10 2-17 13-12 23 4 8 15 10 22 4 6-4 8-13 3-21-3-5-8-7-13-6z"/>
  <circle cx="32" cy="182" r="4"/>
  <circle cx="118" cy="208" r="6"/>
  <circle cx="210" cy="200" r="3"/>
  <circle cx="152" cy="68" r="3"/>
  <circle cx="60" cy="130" r="3"/>
</svg>
