<svg xmlns="http://www.w3.org/2000/svg" viewBox="0 0 200 200" fill="currentColor" aria-hidden="true">
  <path d="M100 12c-6 4-10 13-6 21 3 7 12 11 20 8 10-4 13-15 8-23-5-9-15-10-22-6z"/>
  <path d="M38 60c-10 0-16 10-12 19 3 7 13 10 20 6 6-4 9-12 5-19-3-5-8-7-13-6z"/>
  <path d="M160 70c-7 2-12 10-9 17 3 8 12 11 19 7 7-4 10-13 6-20-3-6-10-6-16-4z"/>
  <path d="M88 108c-12 4-16 19-8 29 7 9 22 7 28-3 6-9 2-22-8-26-4-2-8-2-12 0z"/>
  <circle cx="168" cy="148" r="8"/>
  <circle cx="32" cy="148" r="6"/>
  <circle cx="112" cy="180" r="5"/>
  <circle cx="60" cy="190" r="3"/>
  <circle cx="150" cy="190" r="4"/>
</svg>
